<svg width="102" height="32" viewBox="0 0 102 32" fill="none" xmlns="http://www.w3.org/2000/svg">
<path fill-rule="evenodd" clip-rule="evenodd" d="M97.2667 2.8H74.6C73.9372 2.8 73.4 3.33726 73.4 4V28C73.4 28.6627 73.9372 29.2 74.6 29.2H97.2667C97.9294 29.2 98.4667 28.6627 98.4667 28V24.7333H101.267V28C101.267 30.2091 99.4758 32 97.2667 32H74.6C72.3909 32 70.6 30.2091 70.6 28V4C70.6 1.79086 72.3909 0 74.6 0H97.2667C99.4758 0 101.267 1.79086 101.267 4V6.46667H98.4667V4C98.4667 3.33726 97.9294 2.8 97.2667 2.8ZM94.4008 6.46654C93.6276 6.46654 93.0008 7.09334 93.0008 7.86654C93.0008 8.63974 93.6276 9.26654 94.4008 9.26654C95.174 9.26654 95.8008 8.63974 95.8008 7.86654C95.8008 7.09334 95.174 6.46654 94.4008 6.46654ZM83.6008 9.93322C87.6468 9.93322 90.9344 13.1804 90.9998 17.2108L91.0008 17.3332V24.7332H88.2008L88.201 23.13C86.938 24.1336 85.3394 24.7332 83.6008 24.7332C79.5139 24.7332 76.2008 21.4201 76.2008 17.3332C76.2008 13.2463 79.5139 9.93322 83.6008 9.93322ZM83.6008 12.7332C81.0603 12.7332 79.0008 14.7927 79.0008 17.3332C79.0008 19.8737 81.0603 21.9332 83.6008 21.9332C86.1413 21.9332 88.2008 19.8737 88.2008 17.3332C88.2008 14.7927 86.1413 12.7332 83.6008 12.7332ZM93.0008 11.8665C93.0008 11.0933 93.6276 10.4665 94.4008 10.4665C95.174 10.4665 95.8008 11.0933 95.8008 11.8665V24.7332H93.0008V11.8665ZM60.2 10.4667C64.2869 10.4667 67.6 13.7798 67.6 17.8667C67.6 21.9536 64.2869 25.2667 60.2 25.2667C56.1131 25.2667 52.8 21.9536 52.8 17.8667C52.8 13.7798 56.1131 10.4667 60.2 10.4667ZM53.8 10.4667L53.7996 10.5125C53.7756 12.0073 52.5803 13.2174 51.0915 13.2652L51.0463 13.2663L51 13.2667H50.4001C47.8849 13.2667 45.8413 15.2852 45.8006 17.7906L45.8 17.8667V25.2667H43V17.8667C43 13.8206 46.2472 10.533 50.2777 10.4677L50.4001 10.4667L53.8 10.4667ZM33.6 10.4667C37.646 10.4667 40.9336 13.7138 40.999 17.7443L41 17.8667V25.2667H38.2L38.2002 23.6634C36.9372 24.6671 35.3386 25.2667 33.6 25.2667C29.5131 25.2667 26.2 21.9536 26.2 17.8667C26.2 13.7798 29.5131 10.4667 33.6 10.4667ZM24.6 10.4667L24.5996 10.5125C24.5756 12.0073 23.3803 13.2174 21.8915 13.2652L21.8463 13.2663L21.8 13.2667H18.2C17.3163 13.2667 16.6 13.983 16.6 14.8667C16.6 15.7398 17.2994 16.4496 18.1685 16.4664L18.2 16.4667H20.2C22.63 16.4667 24.6 18.4366 24.6 20.8667C24.6 23.2724 22.6692 25.2272 20.2727 25.2661L20.2 25.2667H13.8V25.2614L13.8004 25.2208C13.8244 23.7262 15.0194 22.5162 16.5081 22.4682L16.5537 22.467L16.6 22.4667H20.2C21.0836 22.4667 21.8 21.7503 21.8 20.8667C21.8 19.9935 21.1006 19.2838 20.2315 19.267L20.2 19.2667H18.2C15.7699 19.2667 13.8 17.2967 13.8 14.8667C13.8 12.4609 15.7307 10.5061 18.1272 10.4673L18.2 10.4667H24.6ZM6.79998 6.46667L6.8 7.86666V10.4667L12.6 10.4667L12.5996 10.5125C12.5756 12.0073 11.3803 13.2174 9.89148 13.2652L9.84629 13.2663L9.79999 13.2667L6.8 13.2667L6.80012 17.866V17.8671L6.80006 20.8667C6.80004 21.7398 7.49938 22.4496 8.3685 22.4664L8.4 22.4667H12.6L12.5996 22.5125C12.5756 24.0073 11.3804 25.2174 9.89151 25.2652L9.84629 25.2663L9.79999 25.2667H8.39991C5.99419 25.2667 4.03942 23.3359 4.00057 20.9394L3.99998 20.8666L4.00012 17.8663L4 13.2667L0 13.2667V10.4667L4 10.4667L3.99998 6.46667H6.79998ZM60.2 13.2667C57.6595 13.2667 55.6 15.3262 55.6 17.8667C55.6 20.4072 57.6595 22.4667 60.2 22.4667C62.7405 22.4667 64.8 20.4072 64.8 17.8667C64.8 15.3262 62.7405 13.2667 60.2 13.2667ZM33.6 13.2667C31.0595 13.2667 29 15.3262 29 17.8667C29 20.4072 31.0595 22.4667 33.6 22.4667C36.1405 22.4667 38.2 20.4072 38.2 17.8667C38.2 15.3262 36.1405 13.2667 33.6 13.2667Z" fill="#0088FF"/>
<path fill-rule="evenodd" clip-rule="evenodd" d="M97.2667 2.8H74.6C73.9372 2.8 73.4 3.33726 73.4 4V28C73.4 28.6627 73.9372 29.2 74.6 29.2H97.2667C97.9294 29.2 98.4667 28.6627 98.4667 28V24.7333H101.267V28C101.267 30.2091 99.4758 32 97.2667 32H74.6C72.3909 32 70.6 30.2091 70.6 28V4C70.6 1.79086 72.3909 0 74.6 0H97.2667C99.4758 0 101.267 1.79086 101.267 4V6.46667H98.4667V4C98.4667 3.33726 97.9294 2.8 97.2667 2.8ZM94.4008 6.46654C93.6276 6.46654 93.0008 7.09334 93.0008 7.86654C93.0008 8.63974 93.6276 9.26654 94.4008 9.26654C95.174 9.26654 95.8008 8.63974 95.8008 7.86654C95.8008 7.09334 95.174 6.46654 94.4008 6.46654ZM83.6008 9.93322C87.6468 9.93322 90.9344 13.1804 90.9998 17.2108L91.0008 17.3332V24.7332H88.2008L88.201 23.13C86.938 24.1336 85.3394 24.7332 83.6008 24.7332C79.5139 24.7332 76.2008 21.4201 76.2008 17.3332C76.2008 13.2463 79.5139 9.93322 83.6008 9.93322ZM83.6008 12.7332C81.0603 12.7332 79.0008 14.7927 79.0008 17.3332C79.0008 19.8737 81.0603 21.9332 83.6008 21.9332C86.1413 21.9332 88.2008 19.8737 88.2008 17.3332C88.2008 14.7927 86.1413 12.7332 83.6008 12.7332ZM93.0008 11.8665C93.0008 11.0933 93.6276 10.4665 94.4008 10.4665C95.174 10.4665 95.8008 11.0933 95.8008 11.8665V24.7332H93.0008V11.8665ZM60.2 10.4667C64.2869 10.4667 67.6 13.7798 67.6 17.8667C67.6 21.9536 64.2869 25.2667 60.2 25.2667C56.1131 25.2667 52.8 21.9536 52.8 17.8667C52.8 13.7798 56.1131 10.4667 60.2 10.4667ZM53.8 10.4667L53.7996 10.5125C53.7756 12.0073 52.5803 13.2174 51.0915 13.2652L51.0463 13.2663L51 13.2667H50.4001C47.8849 13.2667 45.8413 15.2852 45.8006 17.7906L45.8 17.8667V25.2667H43V17.8667C43 13.8206 46.2472 10.533 50.2777 10.4677L50.4001 10.4667L53.8 10.4667ZM33.6 10.4667C37.646 10.4667 40.9336 13.7138 40.999 17.7443L41 17.8667V25.2667H38.2L38.2002 23.6634C36.9372 24.6671 35.3386 25.2667 33.6 25.2667C29.5131 25.2667 26.2 21.9536 26.2 17.8667C26.2 13.7798 29.5131 10.4667 33.6 10.4667ZM24.6 10.4667L24.5996 10.5125C24.5756 12.0073 23.3803 13.2174 21.8915 13.2652L21.8463 13.2663L21.8 13.2667H18.2C17.3163 13.2667 16.6 13.983 16.6 14.8667C16.6 15.7398 17.2994 16.4496 18.1685 16.4664L18.2 16.4667H20.2C22.63 16.4667 24.6 18.4366 24.6 20.8667C24.6 23.2724 22.6692 25.2272 20.2727 25.2661L20.2 25.2667H13.8V25.2614L13.8004 25.2208C13.8244 23.7262 15.0194 22.5162 16.5081 22.4682L16.5537 22.467L16.6 22.4667H20.2C21.0836 22.4667 21.8 21.7503 21.8 20.8667C21.8 19.9935 21.1006 19.2838 20.2315 19.267L20.2 19.2667H18.2C15.7699 19.2667 13.8 17.2967 13.8 14.8667C13.8 12.4609 15.7307 10.5061 18.1272 10.4673L18.2 10.4667H24.6ZM6.79998 6.46667L6.8 7.86666V10.4667L12.6 10.4667L12.5996 10.5125C12.5756 12.0073 11.3803 13.2174 9.89148 13.2652L9.84629 13.2663L9.79999 13.2667L6.8 13.2667L6.80012 17.866V17.8671L6.80006 20.8667C6.80004 21.7398 7.49938 22.4496 8.3685 22.4664L8.4 22.4667H12.6L12.5996 22.5125C12.5756 24.0073 11.3804 25.2174 9.89151 25.2652L9.84629 25.2663L9.79999 25.2667H8.39991C5.99419 25.2667 4.03942 23.3359 4.00057 20.9394L3.99998 20.8666L4.00012 17.8663L4 13.2667L0 13.2667V10.4667L4 10.4667L3.99998 6.46667H6.79998ZM60.2 13.2667C57.6595 13.2667 55.6 15.3262 55.6 17.8667C55.6 20.4072 57.6595 22.4667 60.2 22.4667C62.7405 22.4667 64.8 20.4072 64.8 17.8667C64.8 15.3262 62.7405 13.2667 60.2 13.2667ZM33.6 13.2667C31.0595 13.2667 29 15.3262 29 17.8667C29 20.4072 31.0595 22.4667 33.6 22.4667C36.1405 22.4667 38.2 20.4072 38.2 17.8667C38.2 15.3262 36.1405 13.2667 33.6 13.2667Z" fill="url(#paint0_linear_365_1653)" fill-opacity="5"/>
<defs>
<linearGradient id="paint0_linear_365_1653" x1="46.5" y1="-14" x2="67.6253" y2="92.988" gradientUnits="userSpaceOnUse">
<stop stop-opacity="0"/>
<stop offset="1"/>
</linearGradient>
</defs>
</svg>
